<svg width="39" height="39" viewBox="0 0 39 39" fill="none" xmlns="http://www.w3.org/2000/svg">
<path fill-rule="evenodd" clip-rule="evenodd" d="M21.8831 12.7544C22.1111 12.5333 22.42 12.4092 22.7422 12.4092C23.0643 12.4092 23.3733 12.5333 23.6012 12.7544L33.3263 22.1963C33.5539 22.4176 33.6818 22.7176 33.6818 23.0303C33.6818 23.3431 33.5539 23.6431 33.3263 23.8644L23.6012 33.3063C23.4899 33.4222 23.3557 33.5152 23.2066 33.5798C23.0575 33.6443 22.8965 33.6789 22.7333 33.6817C22.5701 33.6845 22.408 33.6554 22.2566 33.596C22.1052 33.5367 21.9677 33.4483 21.8523 33.3362C21.7369 33.2242 21.6458 33.0907 21.5847 32.9437C21.5236 32.7967 21.4935 32.6393 21.4964 32.4809C21.4993 32.3224 21.535 32.1661 21.6015 32.0213C21.6679 31.8766 21.7637 31.7463 21.8831 31.6382L29.5335 24.2106H6.53379C6.21138 24.2106 5.90218 24.0862 5.67421 23.8649C5.44623 23.6435 5.31816 23.3433 5.31816 23.0303C5.31816 22.7173 5.44623 22.4171 5.67421 22.1958C5.90218 21.9744 6.21138 21.8501 6.53379 21.8501H29.5335L21.8831 14.4224C21.6555 14.2011 21.5276 13.9012 21.5276 13.5884C21.5276 13.2756 21.6555 12.9757 21.8831 12.7544Z" fill="black"/>
</svg>
