<svg width="24" height="24" viewBox="0 0 24 24" fill="none" xmlns="http://www.w3.org/2000/svg">
<path fill-rule="evenodd" clip-rule="evenodd" d="M14.2991 4.6238C14.4658 4.45726 14.6919 4.36371 14.9275 4.36371C15.1632 4.36371 15.3892 4.45726 15.556 4.6238L22.6705 11.7384C22.8371 11.9051 22.9306 12.1311 22.9306 12.3668C22.9306 12.6025 22.8371 12.8285 22.6705 12.9953L15.556 20.1098C15.4746 20.1972 15.3764 20.2673 15.2673 20.3159C15.1582 20.3645 15.0405 20.3906 14.921 20.3927C14.8016 20.3948 14.683 20.3729 14.5723 20.3281C14.4616 20.2834 14.361 20.2168 14.2765 20.1324C14.1921 20.0479 14.1255 19.9473 14.0808 19.8366C14.036 19.7259 14.0141 19.6073 14.0162 19.4879C14.0183 19.3684 14.0444 19.2507 14.093 19.1416C14.1416 19.0325 14.2117 18.9343 14.2991 18.8529L19.8959 13.2561H3.06996C2.8341 13.2561 2.60789 13.1624 2.44111 12.9956C2.27433 12.8289 2.18064 12.6027 2.18064 12.3668C2.18064 12.1309 2.27433 11.9047 2.44111 11.738C2.60789 11.5712 2.8341 11.4775 3.06996 11.4775H19.8959L14.2991 5.8807C14.1326 5.71396 14.039 5.48792 14.039 5.25225C14.039 5.01658 14.1326 4.79055 14.2991 4.6238Z" fill="black"/>
</svg>
