<svg width="24" height="24" viewBox="0 0 24 24" fill="none" xmlns="http://www.w3.org/2000/svg">
<path fill-rule="evenodd" clip-rule="evenodd" d="M14.2991 4.62392C14.4659 4.45738 14.6919 4.36384 14.9276 4.36384C15.1633 4.36384 15.3893 4.45738 15.556 4.62392L22.6706 11.7385C22.8371 11.9052 22.9307 12.1313 22.9307 12.3669C22.9307 12.6026 22.8371 12.8286 22.6706 12.9954L15.556 20.1099C15.4746 20.1973 15.3764 20.2674 15.2674 20.316C15.1583 20.3646 15.0405 20.3907 14.9211 20.3928C14.8017 20.3949 14.6831 20.373 14.5723 20.3283C14.4616 20.2835 14.361 20.217 14.2766 20.1325C14.1921 20.0481 14.1255 19.9475 14.0808 19.8367C14.0361 19.726 14.0141 19.6074 14.0162 19.488C14.0183 19.3686 14.0445 19.2508 14.0931 19.1417C14.1417 19.0326 14.2118 18.9344 14.2991 18.853L19.8959 13.2562H3.07C2.83414 13.2562 2.60794 13.1625 2.44116 12.9958C2.27438 12.829 2.18069 12.6028 2.18069 12.3669C2.18069 12.1311 2.27438 11.9049 2.44116 11.7381C2.60794 11.5713 2.83414 11.4776 3.07 11.4776H19.8959L14.2991 5.88083C14.1326 5.71408 14.0391 5.48804 14.0391 5.25237C14.0391 5.0167 14.1326 4.79067 14.2991 4.62392Z" fill="white"/>
</svg>
